<svg width="93" height="18" viewBox="0 0 93 18" fill="none" xmlns="http://www.w3.org/2000/svg">
<path d="M8.31524 2.10748C8.53077 1.44413 9.46923 1.44413 9.68476 2.10748L10.859 5.72134C10.9554 6.018 11.2318 6.21885 11.5437 6.21885H15.3436C16.0411 6.21885 16.3311 7.11137 15.7668 7.52134L12.6926 9.75483C12.4403 9.93817 12.3347 10.2632 12.4311 10.5598L13.6053 14.1737C13.8208 14.837 13.0616 15.3886 12.4973 14.9787L9.42321 12.7452C9.17085 12.5618 8.82915 12.5618 8.57679 12.7452L5.50266 14.9787C4.93839 15.3886 4.17916 14.837 4.39469 14.1737L5.56891 10.5598C5.6653 10.2632 5.5597 9.93817 5.30735 9.75483L2.23322 7.52134C1.66895 7.11137 1.95894 6.21885 2.65642 6.21885H6.45626C6.76819 6.21885 7.04463 6.018 7.14102 5.72134L8.31524 2.10748Z" fill="#ED2526"/>
<path d="M27.0352 2.10748C27.2507 1.44413 28.1892 1.44413 28.4047 2.10748L29.5789 5.72134C29.6753 6.018 29.9518 6.21885 30.2637 6.21885H34.0635C34.761 6.21885 35.051 7.11137 34.4868 7.52134L31.4126 9.75483C31.1603 9.93817 31.0547 10.2632 31.1511 10.5598L32.3253 14.1737C32.5408 14.837 31.7816 15.3886 31.2173 14.9787L28.1432 12.7452C27.8908 12.5618 27.5491 12.5618 27.2968 12.7452L24.2226 14.9787C23.6584 15.3886 22.8991 14.837 23.1147 14.1737L24.2889 10.5598C24.3853 10.2632 24.2797 9.93817 24.0273 9.75483L20.9532 7.52134C20.3889 7.11137 20.6789 6.21885 21.3764 6.21885H25.1762C25.4882 6.21885 25.7646 6.018 25.861 5.72134L27.0352 2.10748Z" fill="#ED2526"/>
<path d="M45.7552 2.10748C45.9707 1.44413 46.9092 1.44413 47.1247 2.10748L48.2989 5.72134C48.3953 6.018 48.6718 6.21885 48.9837 6.21885H52.7835C53.481 6.21885 53.771 7.11137 53.2067 7.52134L50.1326 9.75483C49.8802 9.93817 49.7746 10.2632 49.871 10.5598L51.0452 14.1737C51.2608 14.837 50.5016 15.3886 49.9373 14.9787L46.8631 12.7452C46.6108 12.5618 46.2691 12.5618 46.0167 12.7452L42.9426 14.9787C42.3783 15.3886 41.6191 14.837 41.8346 14.1737L43.0088 10.5598C43.1052 10.2632 42.9996 9.93817 42.7473 9.75483L39.6732 7.52134C39.1089 7.11137 39.3989 6.21885 40.0964 6.21885H43.8962C44.2081 6.21885 44.4846 6.018 44.581 5.72134L45.7552 2.10748Z" fill="#ED2526"/>
<path d="M64.4753 2.10748C64.6908 1.44413 65.6293 1.44413 65.8448 2.10748L67.019 5.72134C67.1154 6.018 67.3918 6.21885 67.7038 6.21885H71.5036C72.2011 6.21885 72.4911 7.11137 71.9268 7.52134L68.8527 9.75483C68.6003 9.93817 68.4947 10.2632 68.5911 10.5598L69.7653 14.1737C69.9809 14.837 69.2216 15.3886 68.6574 14.9787L65.5832 12.7452C65.3309 12.5618 64.9892 12.5618 64.7368 12.7452L61.6627 14.9787C61.0984 15.3886 60.3392 14.837 60.5547 14.1737L61.7289 10.5598C61.8253 10.2632 61.7197 9.93817 61.4674 9.75483L58.3933 7.52134C57.829 7.11137 58.119 6.21885 58.8165 6.21885H62.6163C62.9282 6.21885 63.2047 6.018 63.3011 5.72134L64.4753 2.10748Z" fill="#ED2526"/>
<path d="M83.1952 2.10748C83.4108 1.44413 84.3492 1.44413 84.5648 2.10748L85.739 5.72134C85.8354 6.018 86.1118 6.21885 86.4237 6.21885H90.2236C90.9211 6.21885 91.2111 7.11137 90.6468 7.52134L87.5727 9.75483C87.3203 9.93817 87.2147 10.2632 87.3111 10.5598L88.4853 14.1737C88.7008 14.837 87.9416 15.3886 87.3773 14.9787L84.3032 12.7452C84.0509 12.5618 83.7092 12.5618 83.4568 12.7452L80.3827 14.9787C79.8184 15.3886 79.0592 14.837 79.2747 14.1737L80.4489 10.5598C80.5453 10.2632 80.4397 9.93817 80.1874 9.75483L77.1132 7.52134C76.549 7.11137 76.8389 6.21885 77.5364 6.21885H81.3363C81.6482 6.21885 81.9246 6.018 82.021 5.72134L83.1952 2.10748Z" fill="#ED2526"/>
</svg>
