<svg width="28" height="28" viewBox="0 0 28 28" fill="none" xmlns="http://www.w3.org/2000/svg">
<path d="M12.3666 19.3666L20.5916 11.1416L18.9583 9.50825L12.3666 16.0999L9.04165 12.7749L7.40831 14.4083L12.3666 19.3666ZM14 25.6666C12.3861 25.6666 10.8694 25.3601 9.44998 24.7473C8.03054 24.1351 6.79581 23.3041 5.74581 22.2541C4.69581 21.2041 3.86476 19.9694 3.25265 18.5499C2.63976 17.1305 2.33331 15.6138 2.33331 13.9999C2.33331 12.386 2.63976 10.8694 3.25265 9.44992C3.86476 8.03048 4.69581 6.79575 5.74581 5.74575C6.79581 4.69575 8.03054 3.86431 9.44998 3.25142C10.8694 2.63931 12.3861 2.33325 14 2.33325C15.6139 2.33325 17.1305 2.63931 18.55 3.25142C19.9694 3.86431 21.2041 4.69575 22.2541 5.74575C23.3041 6.79575 24.1352 8.03048 24.7473 9.44992C25.3602 10.8694 25.6666 12.386 25.6666 13.9999C25.6666 15.6138 25.3602 17.1305 24.7473 18.5499C24.1352 19.9694 23.3041 21.2041 22.2541 22.2541C21.2041 23.3041 19.9694 24.1351 18.55 24.7473C17.1305 25.3601 15.6139 25.6666 14 25.6666Z" fill="#ED2526"/>
</svg>
