<svg width="250" height="67" viewBox="0 0 250 67" fill="none" xmlns="http://www.w3.org/2000/svg">
<path d="M85.321 54.3627H79.9189L78.9212 56.7957H77.0825L81.6626 45.6192H83.6058L88.1859 56.7957H86.314L85.321 54.3627ZM84.6796 52.7974L82.6128 47.7615L80.5603 52.7974H84.6796Z" fill="white"/>
<path d="M88.8179 51.2544C88.8179 47.681 91.0462 45.3956 94.3292 45.3956C97.0041 45.3956 98.4674 46.5539 99.0376 48.8348L97.3462 49.2374C96.9376 47.6407 95.9541 46.9877 94.3529 46.9877C92.2482 46.9877 90.7516 48.4502 90.7516 51.165C90.7516 53.9155 92.1579 55.3779 94.2484 55.3779C96.0301 55.3779 96.9423 54.7921 97.4554 53.2446L99.0946 53.665C98.4342 55.8297 96.8853 57.0059 94.1724 57.0059C90.7801 57.0104 88.8179 54.8323 88.8179 51.2544Z" fill="white"/>
<path d="M107.917 54.3627H102.515L101.518 56.7957H99.6788L104.259 45.6192H106.202L110.782 56.7957H108.91L107.917 54.3627ZM107.271 52.7974L105.204 47.7615L103.152 52.7974H107.271Z" fill="white"/>
<path d="M122.679 51.156C122.679 54.5819 120.36 56.7957 116.726 56.7957H112.393V45.6192H116.816C120.451 45.6147 122.679 47.7302 122.679 51.156ZM120.755 51.2365C120.755 48.6873 119.206 47.2069 116.583 47.2069H114.265V55.1812L116.654 55.1991C119.22 55.1991 120.755 53.7903 120.755 51.2365Z" fill="white"/>
<path d="M132.97 55.1991V56.7957H124.912V45.6192H132.794V47.2114H126.784V50.2481H132.433V51.8448H126.784V55.2035H132.97V55.1991Z" fill="white"/>
<path d="M147.095 56.7957H145.328V49.2731L145.38 48.1998L142.045 56.6258H140.244L136.909 48.2668L136.947 49.2731V56.7912H135.217V45.6147H137.678L141.208 54.5953L144.686 45.6147H147.095V56.7957Z" fill="white"/>
<path d="M154.778 52.0102V56.7912H152.906V52.046L148.696 45.6192H150.73L153.884 50.5523L156.968 45.6192H158.873L154.778 52.0102Z" fill="white"/>
<path d="M8.31929 54.8547C6.62789 53.9557 5.13603 53.1686 3.65368 52.368C2.70821 51.8582 1.78174 51.3125 0.826761 50.8206C0.261377 50.5343 -0.00468863 50.1855 6.2495e-05 49.5415C0.0238181 42.6361 0.0190716 35.7307 0.00481826 28.8253C0.00481826 28.3826 0.0903356 28.0919 0.551195 27.8459C4.20006 25.8959 7.83468 23.9191 11.4693 21.9468C14.3485 20.3815 17.2182 18.7982 20.1116 17.2553C20.4157 17.0942 20.9525 17.0182 21.2281 17.1658C23.6844 18.4628 26.1075 19.8135 28.5401 21.1552C28.6066 21.191 28.6494 21.2759 28.7634 21.4146C27.4996 22.1212 26.2643 22.8323 25.0053 23.5077C21.3421 25.4845 17.6743 27.4523 14.0064 29.4202C12.4053 30.2789 10.8231 31.1644 9.19825 31.9739C8.55685 32.2914 8.30029 32.6537 8.30504 33.3559C8.33355 40.1539 8.32404 46.9475 8.32404 53.7455C8.31929 54.0407 8.31929 54.3359 8.31929 54.8547Z" fill="#ED2526"/>
<path d="M61.6792 41.7237C61.6792 44.6621 61.6887 47.4126 61.6601 50.1631C61.6601 50.3733 61.4273 50.6641 61.2183 50.7759C57.7167 52.6811 54.1961 54.555 50.6898 56.4513C47.6586 58.0882 44.6464 59.7609 41.5961 61.3665C41.2588 61.5454 40.6412 61.5767 40.3181 61.4023C36.5932 59.4434 32.8921 57.4308 29.1957 55.4272C26.421 53.92 23.6511 52.4083 20.8907 50.8787C20.6864 50.7669 20.4441 50.4986 20.4441 50.3018C20.4156 47.5244 20.4251 44.7471 20.4251 41.8311C21.4941 42.3767 22.4728 42.8552 23.4278 43.374C25.2903 44.3893 27.1337 45.4358 28.9914 46.451C31.8183 47.994 34.65 49.5325 37.4864 51.0576C38.4556 51.5809 39.4296 52.0997 40.4369 52.5469C40.7267 52.6766 41.2208 52.6587 41.5011 52.5112C44.6274 50.8608 47.7298 49.1792 50.8323 47.4976C53.9586 45.8026 57.0801 44.103 60.2111 42.4125C60.6244 42.1889 61.0663 42.01 61.6792 41.7237Z" fill="#ED2526"/>
<path d="M43.4301 38.2532C43.4301 31.3791 43.3683 24.6079 43.4776 17.8411C43.5014 16.4458 42.9502 15.8241 41.7719 15.2069C37.0113 12.7113 32.2982 10.1397 27.5756 7.58146C25.9934 6.72276 24.4351 5.82382 22.7532 4.88015C23.3898 4.49999 23.941 4.14219 24.5253 3.83359C26.25 2.92123 28.0507 2.12067 29.6898 1.09649C30.7208 0.452466 31.3385 0.711872 32.2649 1.2575C34.2984 2.46058 36.4697 3.45791 38.5602 4.58943C40.9928 5.90879 43.3873 7.29523 45.8151 8.61906C47.402 9.48671 49.0174 10.3141 50.6423 11.1236C51.2267 11.4143 51.4737 11.7766 51.469 12.4072C51.45 19.3931 51.4595 26.3789 51.4405 33.3693C51.4405 33.6376 51.2979 34.0312 51.0841 34.152C48.7941 35.4355 46.4756 36.6744 44.1618 37.9222C43.967 38.0295 43.7532 38.11 43.4301 38.2532Z" fill="#ED2526"/>
<path d="M41.2493 25.7349C40.1708 25.1625 39.2728 24.6884 38.3748 24.2009C32.816 21.1954 27.2525 18.2034 21.7126 15.1711C21.0332 14.7999 20.5391 14.7597 19.8264 15.1488C13.6595 18.5254 7.464 21.8529 1.27803 25.1982C1.00721 25.3414 0.726901 25.4666 0.370566 25.641C0.337308 25.3369 0.294546 25.1311 0.294546 24.9254C0.289795 22.5774 0.3088 20.2294 0.280293 17.8814C0.275542 17.3715 0.479841 17.0898 0.926447 16.8483C7.32147 13.4045 13.7117 9.95631 20.0925 6.49021C20.5914 6.21739 20.962 6.24423 21.4466 6.5081C27.8036 9.96079 34.1653 13.3956 40.5366 16.8259C41.0402 17.0987 41.2778 17.3939 41.273 17.9798C41.2255 20.4888 41.2493 22.9978 41.2493 25.7349Z" fill="#EF3F24"/>
<path d="M18.2683 29.5454C18.2683 30.1089 18.2683 30.4891 18.2683 30.8692C18.2683 37.5018 18.2778 44.1344 18.254 50.7669C18.2493 51.4244 18.4678 51.7866 19.0855 52.1176C25.3094 55.4495 31.5144 58.8128 37.7241 62.1715C38.0187 62.3325 38.3085 62.507 38.7124 62.744C36.7929 63.795 34.883 64.6716 33.1868 65.821C31.5382 66.9436 30.2696 66.8005 28.5592 65.8255C22.8768 62.5919 17.0757 59.5462 11.3079 56.4558C10.6807 56.1204 10.4241 55.7536 10.4289 55.0515C10.4574 48.2266 10.4574 41.4062 10.4336 34.5813C10.4336 33.9954 10.5952 33.6511 11.1653 33.3559C13.4981 32.1439 15.7929 30.8782 18.2683 29.5454Z" fill="#EF3F24"/>
<path d="M53.5689 13.1317C55.7022 14.2945 57.5979 15.4529 59.6171 16.3876C61.0377 17.0451 61.4558 17.8724 61.432 19.3483C61.3275 25.7618 61.375 32.1752 61.4035 38.5886C61.4083 39.2684 61.2135 39.662 60.5578 40.0108C54.2436 43.4098 47.9483 46.8491 41.6388 50.2571C41.3347 50.4226 40.8074 50.5567 40.5508 50.4225C38.0992 49.139 35.6809 47.7928 33.1105 46.384C33.4764 46.1738 33.7234 46.0217 33.98 45.8831C40.166 42.5422 46.3472 39.1879 52.5427 35.8694C53.2791 35.4758 53.5927 35.0509 53.5879 34.2101C53.5451 27.5776 53.5641 20.9495 53.5641 14.3169C53.5689 13.9904 53.5689 13.6684 53.5689 13.1317Z" fill="#EF3F24"/>
<path d="M108.378 8.67722H127.017V13.7355H114.493V19.648H125.857V24.7063H114.493V30.8513H127.221V35.9096H108.378V8.67722Z" fill="white"/>
<path d="M134.248 8.67718C134.856 8.60115 135.55 8.53406 136.334 8.4804C137.118 8.42673 137.93 8.39094 138.771 8.36411C139.612 8.33727 140.429 8.31938 141.232 8.30597C142.03 8.29255 142.748 8.28809 143.38 8.28809C146.135 8.28809 148.497 8.63246 150.468 9.32121C152.44 10.01 154.051 10.9626 155.305 12.1791C156.559 13.4 157.476 14.8491 158.051 16.5352C158.631 18.2213 158.921 20.0639 158.921 22.0586C158.921 23.8744 158.636 25.6365 158.075 27.3494C157.51 29.0624 156.593 30.583 155.329 31.9202C154.06 33.2575 152.407 34.3264 150.369 35.1314C148.33 35.9364 145.822 36.339 142.848 36.339C142.377 36.339 141.736 36.3255 140.928 36.2987C140.116 36.2719 139.275 36.2406 138.405 36.2003C137.536 36.1601 136.723 36.1243 135.968 36.084C135.208 36.0438 134.638 35.999 134.253 35.9498V8.67718H134.248ZM143.836 13.3464C143.204 13.3464 142.553 13.3553 141.893 13.3642C141.232 13.3777 140.719 13.409 140.363 13.4626V31.1241C140.501 31.151 140.714 31.1689 141.004 31.1823C141.294 31.1957 141.598 31.2091 141.912 31.2225C142.23 31.2359 142.529 31.2494 142.819 31.2628C143.109 31.2762 143.323 31.2807 143.46 31.2807C145.223 31.2807 146.682 31.0213 147.841 30.5025C149 29.9837 149.913 29.2949 150.587 28.4407C151.262 27.5865 151.737 26.6115 152.013 25.5247C152.288 24.4379 152.426 23.3064 152.426 22.1391C152.426 21.182 152.302 20.1802 152.055 19.1426C151.808 18.105 151.357 17.1568 150.711 16.3026C150.065 15.4484 149.19 14.7417 148.088 14.1827C146.991 13.6237 145.57 13.3464 143.836 13.3464Z" fill="white"/>
<path d="M175.697 8.67722H194.335V13.7355H181.811V19.648H193.176V24.7063H181.811V30.8513H194.54V35.9096H175.697V8.67722Z" fill="white"/>
<path d="M230.663 8.67722H249.301V13.7355H236.777V19.648H248.142V24.7063H236.777V30.8513H249.506V35.9096H230.663V8.67722Z" fill="white"/>
<path d="M95.36 25.6008L94.31 24.0354C95.8399 23.4719 97.0799 22.6177 98.0254 21.4549C99.1942 20.0147 99.7833 18.1811 99.7833 15.9493C99.7833 14.4466 99.4365 13.1943 98.7523 12.197C98.0634 11.1996 97.1607 10.4125 96.0442 9.8445C94.9276 9.27651 93.6591 8.874 92.2433 8.63696C90.8227 8.4044 89.3831 8.28812 87.9245 8.28812C87.2926 8.28812 86.5942 8.30153 85.8387 8.32837C85.0786 8.3552 84.3041 8.39544 83.5059 8.44464C82.7078 8.49831 81.9143 8.56987 81.1304 8.65932C80.3464 8.74877 79.6195 8.84716 78.9591 8.95002V35.9096H85.0738V24.8986L88.2998 25.3637L95.493 35.9052H102.601L95.36 25.6008ZM91.7872 20.0773C90.7799 20.699 89.4116 21.0121 87.6727 21.0121H85.0691V13.5029C85.4254 13.4269 85.9005 13.3822 86.4944 13.3688C87.0883 13.3553 87.7012 13.3509 88.3331 13.3509C89.9295 13.3509 91.1553 13.6505 92.0105 14.2453C92.8657 14.8402 93.2933 15.7123 93.2933 16.8528C93.2933 18.3778 92.7896 19.4557 91.7872 20.0773Z" fill="white"/>
<path d="M219.008 8.67722L213.43 18.597L212.637 19.9029L211.858 18.6775L206.071 8.67722H198.797L209.131 25.8736V35.9096H215.25V25.8333L225.579 8.67722H219.008Z" fill="white"/>
</svg>
